<?xml version="1.0" encoding="UTF-8"?>
<svg xmlns="http://www.w3.org/2000/svg" xmlns:xlink="http://www.w3.org/1999/xlink" viewBox="0 0 24 24" width="24px" height="24px">
<g id="surface208583222">
<path style=" stroke:none;fill-rule:nonzero;fill:rgb(60.784316%,34.901962%,71.372551%);fill-opacity:1;" d="M 9 3 L 9 4 L 4 4 C 2.894531 4 2 4.894531 2 6 L 2 8 L 22 8 L 22 6 C 22 4.894531 21.105469 4 20 4 L 15 4 L 15 3 Z M 2 10 L 2 18 C 2 19.101562 2.898438 20 4 20 L 20 20 C 21.101562 20 22 19.101562 22 18 L 22 10 L 19 10 L 19 11 L 15 11 L 15 10 L 9 10 L 9 11 L 5 11 L 5 10 Z M 2 10 "/>
</g>
</svg>
